<?xml version="1.0" encoding="UTF-8"?>
<!DOCTYPE svg PUBLIC "-//W3C//DTD SVG 1.1//EN" "http://www.w3.org/Graphics/SVG/1.1/DTD/svg11.dtd">
<svg xmlns="http://www.w3.org/2000/svg" xmlns:xlink="http://www.w3.org/1999/xlink" version="1.1" width="321px" height="321px" viewBox="-0.5 -0.5 321 321"><defs/><g><path d="M 20 120 L 20 193.63" fill="none" stroke="#000000" stroke-miterlimit="10" pointer-events="stroke"/><path d="M 20 198.88 L 16.5 191.88 L 20 193.63 L 23.5 191.88 Z" fill="#000000" stroke="#000000" stroke-miterlimit="10" pointer-events="all"/><path d="M 40 100 L 273.63 100" fill="none" stroke="#000000" stroke-miterlimit="10" pointer-events="stroke"/><path d="M 278.88 100 L 271.88 103.5 L 273.63 100 L 271.88 96.5 Z" fill="#000000" stroke="#000000" stroke-miterlimit="10" pointer-events="all"/><ellipse cx="20" cy="100" rx="20" ry="20" fill="#ffffff" stroke="#000000" pointer-events="all"/><path d="M 80 20 L 20 20 L 20 73.63" fill="none" stroke="#000000" stroke-miterlimit="10" pointer-events="stroke"/><path d="M 20 78.88 L 16.5 71.88 L 20 73.63 L 23.5 71.88 Z" fill="#000000" stroke="#000000" stroke-miterlimit="10" pointer-events="all"/><ellipse cx="100" cy="20" rx="20" ry="20" fill="#ffffff" stroke="#000000" pointer-events="all"/><ellipse cx="220" cy="20" rx="20" ry="20" fill="#ffffff" stroke="#000000" pointer-events="all"/><path d="M 300 80 L 300 20 L 246.37 20" fill="none" stroke="#000000" stroke-miterlimit="10" pointer-events="stroke"/><path d="M 241.12 20 L 248.12 16.5 L 246.37 20 L 248.12 23.5 Z" fill="#000000" stroke="#000000" stroke-miterlimit="10" pointer-events="all"/><ellipse cx="300" cy="100" rx="20" ry="20" fill="#ffffff" stroke="#000000" pointer-events="all"/><path d="M 300 200 L 300 126.37" fill="none" stroke="#000000" stroke-miterlimit="10" pointer-events="stroke"/><path d="M 300 121.12 L 303.5 128.12 L 300 126.37 L 296.5 128.12 Z" fill="#000000" stroke="#000000" stroke-miterlimit="10" pointer-events="all"/><ellipse cx="300" cy="220" rx="20" ry="20" fill="#ffffff" stroke="#000000" pointer-events="all"/><path d="M 240 300 L 300 300 L 300 246.37" fill="none" stroke="#000000" stroke-miterlimit="10" pointer-events="stroke"/><path d="M 300 241.12 L 303.5 248.12 L 300 246.37 L 296.5 248.12 Z" fill="#000000" stroke="#000000" stroke-miterlimit="10" pointer-events="all"/><ellipse cx="220" cy="300" rx="20" ry="20" fill="#ffffff" stroke="#000000" pointer-events="all"/><path d="M 120 300 L 193.63 300" fill="none" stroke="#000000" stroke-miterlimit="10" pointer-events="stroke"/><path d="M 198.88 300 L 191.88 303.5 L 193.63 300 L 191.88 296.5 Z" fill="#000000" stroke="#000000" stroke-miterlimit="10" pointer-events="all"/><ellipse cx="100" cy="300" rx="20" ry="20" fill="#ffffff" stroke="#000000" pointer-events="all"/><path d="M 20 240 L 20 300 L 73.63 300" fill="none" stroke="#000000" stroke-miterlimit="10" pointer-events="stroke"/><path d="M 78.88 300 L 71.88 303.5 L 73.63 300 L 71.88 296.5 Z" fill="#000000" stroke="#000000" stroke-miterlimit="10" pointer-events="all"/><path d="M 40 220 L 273.63 220" fill="none" stroke="#000000" stroke-miterlimit="10" pointer-events="stroke"/><path d="M 278.88 220 L 271.88 223.5 L 273.63 220 L 271.88 216.5 Z" fill="#000000" stroke="#000000" stroke-miterlimit="10" pointer-events="all"/><ellipse cx="20" cy="220" rx="20" ry="20" fill="#ffffff" stroke="#000000" pointer-events="all"/></g></svg>