<svg xmlns="http://www.w3.org/2000/svg" xmlns:xlink="http://www.w3.org/1999/xlink" xmlns:lucid="lucid" width="1140" height="1561.35"><g transform="translate(-580 -220)" lucid:page-tab-id="0_0"><path d="M900 908c0-4.42 3.58-8 8-8h184c4.42 0 8 3.58 8 8v185.35c0 4.4-3.58 8-8 8H908c-4.42 0-8-3.6-8-8z" stroke="#333" fill="#cafffb"/><use xlink:href="#a" transform="matrix(1,0,0,1,905,905) translate(4.710802469135842 100.6222222222222)"/><path d="M1500 908c0-4.42 3.58-8 8-8h184c4.42 0 8 3.58 8 8v185.35c0 4.4-3.58 8-8 8h-184c-4.42 0-8-3.6-8-8z" stroke="#333" fill="#cafffb"/><use xlink:href="#b" transform="matrix(1,0,0,1,1505,905) translate(62.25339506172841 100.6222222222222)"/><path d="M1300 407.33c0-4.42 3.58-8 8-8h184c4.42 0 8 3.58 8 8v184c0 4.42-3.58 8-8 8h-184c-4.42 0-8-3.58-8-8z" stroke="#333" fill="#cafffb"/><use xlink:href="#c" transform="matrix(1,0,0,1,1305,404.3269732800983) translate(55.24691358024693 82.0597222222222)"/><use xlink:href="#d" transform="matrix(1,0,0,1,1305,404.3269732800983) translate(11.667592592592626 124.99305555555554)"/><path d="M1300 1410.02c0-4.42 3.58-8 8-8h184c4.42 0 8 3.58 8 8v184c0 4.42-3.58 8-8 8h-184c-4.42 0-8-3.58-8-8z" stroke="#333" fill="#cafffb"/><use xlink:href="#e" transform="matrix(1,0,0,1,1305,1407.0190801597053) translate(41.333333333333364 82.0597222222222)"/><use xlink:href="#f" transform="matrix(1,0,0,1,1305,1407.0190801597053) translate(50.675308641975334 124.99305555555554)"/><path d="M1294.36 905.68c3.12-3.14 8.16-3.14 11.28 0l88.72 89.32c3.12 3.13 3.12 8.2 0 11.35l-88.72 89.32c-3.12 3.13-8.16 3.13-11.28 0l-88.72-89.32c-3.12-3.14-3.12-8.22 0-11.35z" stroke="#333" fill="#f9d2de"/><use xlink:href="#g" transform="matrix(1,0,0,1,1205,905) translate(63.25222222222223 100.6222222222222)"/><path d="M1594.36 605c3.12-3.13 8.16-3.13 11.28 0l88.72 89.32c3.12 3.14 3.12 8.22 0 11.36L1605.64 795c-3.12 3.13-8.16 3.13-11.28 0l-88.72-89.32c-3.12-3.14-3.12-8.22 0-11.36z" stroke="#333" fill="#f9d2de"/><use xlink:href="#h" transform="matrix(1,0,0,1,1505,604.3269732800983) translate(21.56117283950621 100.6222222222222)"/><path d="M1594.36 1206.35c3.12-3.14 8.16-3.14 11.28 0l88.72 89.32c3.12 3.13 3.12 8.22 0 11.35l-88.72 89.32c-3.12 3.14-8.16 3.14-11.28 0l-88.72-89.32c-3.12-3.13-3.12-8.22 0-11.35z" stroke="#333" fill="#f9d2de"/><use xlink:href="#i" transform="matrix(1,0,0,1,1505,1205.6730267199018) translate(47.05283950617286 100.6222222222222)"/><path d="M900 748.67c0-4.42 3.58-8 8-8h184c4.42 0 8 3.58 8 8v44c0 4.42-3.58 8-8 8H908c-4.42 0-8-3.58-8-8z" stroke="#000" stroke-opacity="0" fill="#fff" fill-opacity="0"/><use xlink:href="#j" transform="matrix(1,0,0,1,905,745.6730267199018) translate(47.3956790123457 31.747222222222213)"/><path d="M900 1208.67c0-4.42 3.58-8 8-8h184c4.42 0 8 3.58 8 8v44c0 4.42-3.58 8-8 8H908c-4.42 0-8-3.58-8-8z" stroke="#000" stroke-opacity="0" fill="#fff" fill-opacity="0"/><use xlink:href="#k" transform="matrix(1,0,0,1,905,1205.6730267199018) translate(5.754320987654367 31.747222222222213)"/><path d="M600 248c0-4.42 3.58-8 8-8h184c4.42 0 8 3.58 8 8v44c0 4.42-3.58 8-8 8H608c-4.42 0-8-3.58-8-8z" stroke="#000" stroke-opacity="0" fill="#fff" fill-opacity="0"/><use xlink:href="#j" transform="matrix(1,0,0,1,605,245) translate(47.3956790123457 31.747222222222213)"/><path d="M1300 248c0-4.42 3.58-8 8-8h184c4.42 0 8 3.58 8 8v44c0 4.42-3.58 8-8 8h-184c-4.42 0-8-3.58-8-8z" stroke="#000" stroke-opacity="0" fill="#fff" fill-opacity="0"/><use xlink:href="#l" transform="matrix(1,0,0,1,1305,245) translate(50.675308641975334 31.747222222222213)"/><path d="M1300 1709.35c0-4.42 3.58-8 8-8h184c4.42 0 8 3.58 8 8v44c0 4.4-3.58 8-8 8h-184c-4.42 0-8-3.6-8-8z" stroke="#000" stroke-opacity="0" fill="#fff" fill-opacity="0"/><use xlink:href="#l" transform="matrix(1,0,0,1,1305,1706.3460534398037) translate(50.675308641975334 31.747222222222213)"/><path d="M1000 899v-97.83" stroke="#333" fill="none"/><path d="M1000.5 899.5h-1v-.5h1zM1000.5 801.2h-1v-.53h1z" fill="#333"/><path d="M1000 1102.35v97.82" stroke="#333" fill="none"/><path d="M1000.5 1102.36h-1v-.5h1zM1000.5 1200.67h-1v-.5h1z" fill="#333"/><path d="M1600 899V798.35" stroke="#333" fill="none"/><path d="M1600.5 899.5h-1v-.5h1zM1600.03 797.85l.47-.06v.56h-1v-.58z" fill="#333"/><path d="M1600 1102.35V1203" stroke="#333" fill="none"/><path d="M1600.5 1102.36h-1v-.5h1zM1600.5 1203.56l-.53-.07-.47.06v-.58h1z" fill="#333"/><path d="M1480.1 1000.67h-82.4" stroke="#333" fill="none"/><path d="M1499.28 1010.67l-20-10 20-10M1499.28 1000.67h-20" stroke="#333" fill="#fff"/><path d="M1397.7 1001.17h-.56l.06-.47-.07-.53h.58z" fill="#333"/><path d="M1101 1000.67h101.3" stroke="#333" fill="none"/><path d="M1101 1001.17h-.5v-1h.5zM1202.8 1000.64l.07.53h-.58v-1h.56z" fill="#333"/><path d="M600 407.33c0-4.42 3.58-8 8-8h184c4.42 0 8 3.58 8 8v184c0 4.42-3.58 8-8 8H608c-4.42 0-8-3.58-8-8z" stroke="#333" fill="#cafffb"/><use xlink:href="#m" transform="matrix(1,0,0,1,605,404.3269732800983) translate(55.24691358024693 58.30972222222221)"/><use xlink:href="#n" transform="matrix(1,0,0,1,605,404.3269732800983) translate(11.667592592592626 101.24305555555554)"/><use xlink:href="#o" transform="matrix(1,0,0,1,605,404.3269732800983) translate(56.29043209876545 144.17638888888885)"/><path d="M694.36 704.33c3.12-3.13 8.16-3.13 11.28 0l88.72 89.32c3.12 3.14 3.12 8.22 0 11.35l-88.72 89.32c-3.12 3.14-8.16 3.14-11.28 0L605.64 805c-3.12-3.13-3.12-8.2 0-11.35z" stroke="#333" fill="#f9d2de"/><use xlink:href="#p" transform="matrix(1,0,0,1,605,703.6539465601966) translate(23.59851851851857 100.6222222222222)"/><path d="M1400 398.33V300.5" stroke="#333" fill="none"/><path d="M1400.5 398.83h-1v-.52h1zM1400.5 300.5h-1v-.5h1z" fill="#333"/><path d="M1519.9 499.33h66.1c7.73 0 14 6.26 14 14v88.32" stroke="#333" fill="none"/><path d="M1500.72 489.33l20 10-20 10M1500.72 499.33h20" stroke="#333" fill="#fff"/><path d="M1600.5 602.22l-.53-.07-.47.06v-.56h1z" fill="#333"/><path d="M700 398.33V300.5" stroke="#333" fill="none"/><path d="M700.5 398.83h-1v-.52h1zM700.5 300.5h-1v-.5h1z" fill="#333"/><path d="M880.1 920.67h-19.75c-6.63 0-12-5.37-12-12v-97.34c0-6.63-5.37-12-12-12H797.7" stroke="#333" fill="none"/><path d="M899.28 930.67l-20-10 20-10M899.28 920.67h-20" stroke="#333" fill="#fff"/><path d="M797.7 799.83h-.56l.06-.47-.07-.53h.58z" fill="#333"/><path d="M700 700.98v-81.74" stroke="#333" fill="none"/><path d="M700.5 701.54l-.53-.07-.47.07v-.57h1z" fill="#333"/><path d="M710 600.05l-10 20-10-20M700 600.05v20" stroke="#333" fill="#fff"/><path d="M1044.36 405c3.12-3.13 8.16-3.13 11.28 0l88.72 89.32c3.12 3.14 3.12 8.22 0 11.36L1055.64 595c-3.12 3.13-8.16 3.13-11.28 0l-88.72-89.32c-3.12-3.14-3.12-8.22 0-11.36z" stroke="#333" fill="#f9d2de"/><use xlink:href="#q" transform="matrix(1,0,0,1,955,404.3269732800983) translate(59.22722222222224 100.6222222222222)"/><path d="M1147.7 500h132.4" stroke="#333" fill="none"/><path d="M1147.7 500.5h-.56l.06-.47-.07-.53h.58z" fill="#333"/><path d="M1299.28 510l-20-10 20-10M1299.28 500h-20" stroke="#333" fill="#fff"/><path d="M952.3 500H801" stroke="#333" fill="none"/><path d="M952.8 499.97l.07.53h-.58v-1h.56zM801 500.5h-.5v-1h.5z" fill="#333"/><path d="M694.36 1107.02c3.12-3.13 8.16-3.13 11.28 0l88.72 89.32c3.12 3.14 3.12 8.22 0 11.35L705.64 1297c-3.12 3.13-8.16 3.13-11.28 0l-88.72-89.33c-3.12-3.14-3.12-8.22 0-11.36z" stroke="#333" fill="#f9d2de"/><use xlink:href="#r" transform="matrix(1,0,0,1,605,1106.3460534398034) translate(25.536481481481527 100.6222222222222)"/><path d="M880.43 1095.1h-19.9c-6.64 0-12 5.37-12 12v82.92c0 6.63-5.38 12-12 12H797.7" stroke="#333" fill="none"/><path d="M899.62 1105.1l-20-10 20-10M899.62 1095.1h-20" stroke="#333" fill="#fff"/><path d="M797.7 1202.52h-.56l.06-.47-.07-.53h.58z" fill="#333"/><path d="M600 1410.02c0-4.42 3.58-8 8-8h184c4.42 0 8 3.58 8 8v184c0 4.42-3.58 8-8 8H608c-4.42 0-8-3.58-8-8z" stroke="#333" fill="#cafffb"/><use xlink:href="#s" transform="matrix(1,0,0,1,605,1407.0190801597053) translate(41.333333333333364 58.30972222222221)"/><use xlink:href="#t" transform="matrix(1,0,0,1,605,1407.0190801597053) translate(50.675308641975334 101.24305555555554)"/><use xlink:href="#o" transform="matrix(1,0,0,1,605,1407.0190801597053) translate(56.29043209876545 144.17638888888885)"/><path d="M700 1300.37v81.74" stroke="#333" fill="none"/><path d="M700.03 1299.87l.47-.06v.58h-1v-.58z" fill="#333"/><path d="M690 1401.3l10-20 10 20M700 1401.3v-20" stroke="#333" fill="#fff"/><path d="M600 1709.35c0-4.42 3.58-8 8-8h184c4.42 0 8 3.58 8 8v44c0 4.4-3.58 8-8 8H608c-4.42 0-8-3.6-8-8z" stroke="#000" stroke-opacity="0" fill="#fff" fill-opacity="0"/><use xlink:href="#u" transform="matrix(1,0,0,1,605,1706.3460534398037) translate(47.3956790123457 31.747222222222213)"/><path d="M700 1603.02v97.83" stroke="#333" fill="none"/><path d="M700.5 1603.03h-1v-.5h1zM700.5 1701.35h-1v-.52h1z" fill="#333"/><path d="M1400 1603.02v97.83" stroke="#333" fill="none"/><path d="M1400.5 1603.03h-1v-.5h1zM1400.5 1701.35h-1v-.52h1z" fill="#333"/><path d="M1044.36 1407.7c3.12-3.14 8.16-3.14 11.28 0l88.72 89.32c3.12 3.13 3.12 8.2 0 11.35l-88.72 89.32c-3.12 3.12-8.16 3.12-11.28 0l-88.72-89.33c-3.12-3.14-3.12-8.22 0-11.35z" stroke="#333" fill="#f9d2de"/><use xlink:href="#q" transform="matrix(1,0,0,1,955,1407.0190801597053) translate(59.22722222222224 100.6222222222222)"/><path d="M1280.1 1502.02h-132.5" stroke="#333" fill="none"/><path d="M1299.28 1512.02l-20-10 20-10M1299.28 1502.02h-20" stroke="#333" fill="#fff"/><path d="M1147.62 1502.52h-.44l-.13-1h.57z" fill="#333"/><path d="M952.3 1502.7H801" stroke="#333" fill="none"/><path d="M952.8 1502.66l.07.53h-.58v-1h.56zM801 1503.2h-.5v-1h.5z" fill="#333"/><path d="M1600 1399.7V1490c0 6.63-5.37 12-12 12h-68.1" stroke="#333" fill="none"/><path d="M1600.03 1399.2l.47-.07v.58h-1v-.57z" fill="#333"/><path d="M1500.72 1492.02l20 10-20 10M1500.72 1502.02h20" stroke="#333" fill="#fff"/><defs><path fill="#333" d="M30 0v-248h187v28H63v79h144v27H63v87h162V0H30" id="v"/><path fill="#333" d="M141 0L90-78 38 0H4l68-98-65-92h35l48 74 47-74h35l-64 92 68 98h-35" id="w"/><path fill="#333" d="M115-194c55 1 70 41 70 98S169 2 115 4C84 4 66-9 55-30l1 105H24l-1-265h31l2 30c10-21 28-34 59-34zm-8 174c40 0 45-34 45-75s-6-73-45-74c-42 0-51 32-51 76 0 43 10 73 51 73" id="x"/><path fill="#333" d="M100-194c63 0 86 42 84 106H49c0 40 14 67 53 68 26 1 43-12 49-29l28 8c-11 28-37 45-77 45C44 4 14-33 15-96c1-61 26-98 85-98zm52 81c6-60-76-77-97-28-3 7-6 17-6 28h103" id="y"/><path fill="#333" d="M114-163C36-179 61-72 57 0H25l-1-190h30c1 12-1 29 2 39 6-27 23-49 58-41v29" id="z"/><path fill="#333" d="M24-231v-30h32v30H24zM24 0v-190h32V0H24" id="A"/><path fill="#333" d="M210-169c-67 3-38 105-44 169h-31v-121c0-29-5-50-35-48C34-165 62-65 56 0H25l-1-190h30c1 10-1 24 2 32 10-44 99-50 107 0 11-21 27-35 58-36 85-2 47 119 55 194h-31v-121c0-29-5-49-35-48" id="B"/><path fill="#333" d="M117-194c89-4 53 116 60 194h-32v-121c0-31-8-49-39-48C34-167 62-67 57 0H25l-1-190h30c1 10-1 24 2 32 11-22 29-35 61-36" id="C"/><path fill="#333" d="M59-47c-2 24 18 29 38 22v24C64 9 27 4 27-40v-127H5v-23h24l9-43h21v43h35v23H59v120" id="D"/><g id="a"><use transform="matrix(0.09938271604938267,0,0,0.09938271604938267,0,0)" xlink:href="#v"/><use transform="matrix(0.09938271604938267,0,0,0.09938271604938267,23.85185185185184,0)" xlink:href="#w"/><use transform="matrix(0.09938271604938267,0,0,0.09938271604938267,41.74074074074072,0)" xlink:href="#x"/><use transform="matrix(0.09938271604938267,0,0,0.09938271604938267,61.61728395061725,0)" xlink:href="#y"/><use transform="matrix(0.09938271604938267,0,0,0.09938271604938267,81.49382716049378,0)" xlink:href="#z"/><use transform="matrix(0.09938271604938267,0,0,0.09938271604938267,93.32037037037031,0)" xlink:href="#A"/><use transform="matrix(0.09938271604938267,0,0,0.09938271604938267,101.17160493827154,0)" xlink:href="#B"/><use transform="matrix(0.09938271604938267,0,0,0.09938271604938267,130.88703703703698,0)" xlink:href="#y"/><use transform="matrix(0.09938271604938267,0,0,0.09938271604938267,150.7635802469135,0)" xlink:href="#C"/><use transform="matrix(0.09938271604938267,0,0,0.09938271604938267,170.64012345679004,0)" xlink:href="#D"/></g><path fill="#333" d="M233-177c-1 41-23 64-60 70L243 0h-38l-65-103H63V0H30v-248c88 3 205-21 203 71zM63-129c60-2 137 13 137-47 0-61-80-42-137-45v92" id="E"/><path fill="#333" d="M84 4C-5 8 30-112 23-190h32v120c0 31 7 50 39 49 72-2 45-101 50-169h31l1 190h-30c-1-10 1-25-2-33-11 22-28 36-60 37" id="F"/><g id="b"><use transform="matrix(0.09938271604938267,0,0,0.09938271604938267,0,0)" xlink:href="#E"/><use transform="matrix(0.09938271604938267,0,0,0.09938271604938267,25.740123456790112,0)" xlink:href="#F"/><use transform="matrix(0.09938271604938267,0,0,0.09938271604938267,45.616666666666646,0)" xlink:href="#C"/></g><path fill="#333" d="M33 0v-248h34V0H33" id="G"/><g id="c"><use transform="matrix(0.09938271604938267,0,0,0.09938271604938267,0,0)" xlink:href="#G"/><use transform="matrix(0.09938271604938267,0,0,0.09938271604938267,9.938271604938267,0)" xlink:href="#C"/><use transform="matrix(0.09938271604938267,0,0,0.09938271604938267,29.814814814814802,0)" xlink:href="#x"/><use transform="matrix(0.09938271604938267,0,0,0.09938271604938267,49.69135802469134,0)" xlink:href="#F"/><use transform="matrix(0.09938271604938267,0,0,0.09938271604938267,69.56790123456787,0)" xlink:href="#D"/></g><path fill="#333" d="M30-248c87 1 191-15 191 75 0 78-77 80-158 76V0H30v-248zm33 125c57 0 124 11 124-50 0-59-68-47-124-48v98" id="H"/><path fill="#333" d="M141-36C126-15 110 5 73 4 37 3 15-17 15-53c-1-64 63-63 125-63 3-35-9-54-41-54-24 1-41 7-42 31l-33-3c5-37 33-52 76-52 45 0 72 20 72 64v82c-1 20 7 32 28 27v20c-31 9-61-2-59-35zM48-53c0 20 12 33 32 33 41-3 63-29 60-74-43 2-92-5-92 41" id="I"/><g id="d"><use transform="matrix(0.09938271604938267,0,0,0.09938271604938267,0,0)" xlink:href="#H"/><use transform="matrix(0.09938271604938267,0,0,0.09938271604938267,23.85185185185184,0)" xlink:href="#I"/><use transform="matrix(0.09938271604938267,0,0,0.09938271604938267,43.72839506172838,0)" xlink:href="#z"/><use transform="matrix(0.09938271604938267,0,0,0.09938271604938267,55.55493827160492,0)" xlink:href="#I"/><use transform="matrix(0.09938271604938267,0,0,0.09938271604938267,75.43148148148146,0)" xlink:href="#B"/><use transform="matrix(0.09938271604938267,0,0,0.09938271604938267,105.14691358024687,0)" xlink:href="#y"/><use transform="matrix(0.09938271604938267,0,0,0.09938271604938267,125.0234567901234,0)" xlink:href="#D"/><use transform="matrix(0.09938271604938267,0,0,0.09938271604938267,134.96172839506167,0)" xlink:href="#y"/><use transform="matrix(0.09938271604938267,0,0,0.09938271604938267,154.8382716049382,0)" xlink:href="#z"/></g><path fill="#333" d="M140-251c81 0 123 46 123 126C263-46 219 4 140 4 59 4 17-45 17-125s42-126 123-126zm0 227c63 0 89-41 89-101s-29-99-89-99c-61 0-89 39-89 99S79-25 140-24" id="J"/><g id="e"><use transform="matrix(0.09938271604938267,0,0,0.09938271604938267,0,0)" xlink:href="#J"/><use transform="matrix(0.09938271604938267,0,0,0.09938271604938267,27.827160493827147,0)" xlink:href="#F"/><use transform="matrix(0.09938271604938267,0,0,0.09938271604938267,47.70370370370368,0)" xlink:href="#D"/><use transform="matrix(0.09938271604938267,0,0,0.09938271604938267,57.64197530864195,0)" xlink:href="#x"/><use transform="matrix(0.09938271604938267,0,0,0.09938271604938267,77.51851851851848,0)" xlink:href="#F"/><use transform="matrix(0.09938271604938267,0,0,0.09938271604938267,97.395061728395,0)" xlink:href="#D"/></g><path fill="#333" d="M137 0h-34L2-248h35l83 218 83-218h36" id="K"/><path fill="#333" d="M24 0v-261h32V0H24" id="L"/><g id="f"><use transform="matrix(0.09938271604938267,0,0,0.09938271604938267,0,0)" xlink:href="#K"/><use transform="matrix(0.09938271604938267,0,0,0.09938271604938267,21.168518518518507,0)" xlink:href="#I"/><use transform="matrix(0.09938271604938267,0,0,0.09938271604938267,41.04506172839504,0)" xlink:href="#L"/><use transform="matrix(0.09938271604938267,0,0,0.09938271604938267,48.89629629629627,0)" xlink:href="#F"/><use transform="matrix(0.09938271604938267,0,0,0.09938271604938267,68.7728395061728,0)" xlink:href="#y"/></g><path fill="#333" d="M197 0v-115H63V0H30v-248h33v105h134v-105h34V0h-34" id="M"/><path fill="#333" d="M135-143c-3-34-86-38-87 0 15 53 115 12 119 90S17 21 10-45l28-5c4 36 97 45 98 0-10-56-113-15-118-90-4-57 82-63 122-42 12 7 21 19 24 35" id="N"/><g id="g"><use transform="matrix(0.09938271604938267,0,0,0.09938271604938267,0,0)" xlink:href="#M"/><use transform="matrix(0.09938271604938267,0,0,0.09938271604938267,25.740123456790112,0)" xlink:href="#I"/><use transform="matrix(0.09938271604938267,0,0,0.09938271604938267,45.616666666666646,0)" xlink:href="#N"/></g><path fill="#333" d="M96-169c-40 0-48 33-48 73s9 75 48 75c24 0 41-14 43-38l32 2c-6 37-31 61-74 61-59 0-76-41-82-99-10-93 101-131 147-64 4 7 5 14 7 22l-32 3c-4-21-16-35-41-35" id="O"/><path fill="#333" d="M108 0H70L1-190h34L89-25l56-165h34" id="P"/><g id="h"><use transform="matrix(0.09938271604938267,0,0,0.09938271604938267,0,0)" xlink:href="#E"/><use transform="matrix(0.09938271604938267,0,0,0.09938271604938267,25.740123456790112,0)" xlink:href="#y"/><use transform="matrix(0.09938271604938267,0,0,0.09938271604938267,45.616666666666646,0)" xlink:href="#O"/><use transform="matrix(0.09938271604938267,0,0,0.09938271604938267,63.50555555555553,0)" xlink:href="#y"/><use transform="matrix(0.09938271604938267,0,0,0.09938271604938267,83.38209876543206,0)" xlink:href="#A"/><use transform="matrix(0.09938271604938267,0,0,0.09938271604938267,91.23333333333329,0)" xlink:href="#P"/><use transform="matrix(0.09938271604938267,0,0,0.09938271604938267,109.12222222222218,0)" xlink:href="#y"/><use transform="matrix(0.09938271604938267,0,0,0.09938271604938267,128.9987654320987,0)" xlink:href="#N"/></g><path fill="#333" d="M137-103V0h-34v-103L8-248h37l75 118 75-118h37" id="Q"/><path fill="#333" d="M85-194c31 0 48 13 60 33l-1-100h32l1 261h-30c-2-10 0-23-3-31C134-8 116 4 85 4 32 4 16-35 15-94c0-66 23-100 70-100zm9 24c-40 0-46 34-46 75 0 40 6 74 45 74 42 0 51-32 51-76 0-42-9-74-50-73" id="R"/><g id="i"><use transform="matrix(0.09938271604938267,0,0,0.09938271604938267,0,0)" xlink:href="#Q"/><use transform="matrix(0.09938271604938267,0,0,0.09938271604938267,22.559876543209867,0)" xlink:href="#A"/><use transform="matrix(0.09938271604938267,0,0,0.09938271604938267,30.411111111111097,0)" xlink:href="#y"/><use transform="matrix(0.09938271604938267,0,0,0.09938271604938267,50.28765432098763,0)" xlink:href="#L"/><use transform="matrix(0.09938271604938267,0,0,0.09938271604938267,58.13888888888885,0)" xlink:href="#R"/><use transform="matrix(0.09938271604938267,0,0,0.09938271604938267,78.01543209876539,0)" xlink:href="#N"/></g><path fill="#333" d="M190 0L58-211 59 0H30v-248h39L202-35l-2-213h31V0h-41" id="S"/><g id="j"><use transform="matrix(0.09938271604938267,0,0,0.09938271604938267,0,0)" xlink:href="#S"/><use transform="matrix(0.09938271604938267,0,0,0.09938271604938267,25.740123456790112,0)" xlink:href="#I"/><use transform="matrix(0.09938271604938267,0,0,0.09938271604938267,45.616666666666646,0)" xlink:href="#B"/><use transform="matrix(0.09938271604938267,0,0,0.09938271604938267,75.33209876543206,0)" xlink:href="#y"/></g><path fill="#333" d="M30-248c118-7 216 8 213 122C240-48 200 0 122 0H30v-248zM63-27c89 8 146-16 146-99s-60-101-146-95v194" id="T"/><path fill="#333" d="M100-194c62-1 85 37 85 99 1 63-27 99-86 99S16-35 15-95c0-66 28-99 85-99zM99-20c44 1 53-31 53-75 0-43-8-75-51-75s-53 32-53 75 10 74 51 75" id="U"/><g id="k"><use transform="matrix(0.09938271604938267,0,0,0.09938271604938267,0,0)" xlink:href="#T"/><use transform="matrix(0.09938271604938267,0,0,0.09938271604938267,25.740123456790112,0)" xlink:href="#y"/><use transform="matrix(0.09938271604938267,0,0,0.09938271604938267,45.616666666666646,0)" xlink:href="#N"/><use transform="matrix(0.09938271604938267,0,0,0.09938271604938267,63.50555555555553,0)" xlink:href="#O"/><use transform="matrix(0.09938271604938267,0,0,0.09938271604938267,81.39444444444442,0)" xlink:href="#z"/><use transform="matrix(0.09938271604938267,0,0,0.09938271604938267,93.22098765432095,0)" xlink:href="#A"/><use transform="matrix(0.09938271604938267,0,0,0.09938271604938267,101.07222222222218,0)" xlink:href="#x"/><use transform="matrix(0.09938271604938267,0,0,0.09938271604938267,120.94876543209871,0)" xlink:href="#D"/><use transform="matrix(0.09938271604938267,0,0,0.09938271604938267,130.88703703703698,0)" xlink:href="#A"/><use transform="matrix(0.09938271604938267,0,0,0.09938271604938267,138.7382716049382,0)" xlink:href="#U"/><use transform="matrix(0.09938271604938267,0,0,0.09938271604938267,158.61481481481474,0)" xlink:href="#C"/></g><g id="l"><use transform="matrix(0.09938271604938267,0,0,0.09938271604938267,0,0)" xlink:href="#K"/><use transform="matrix(0.09938271604938267,0,0,0.09938271604938267,21.168518518518507,0)" xlink:href="#I"/><use transform="matrix(0.09938271604938267,0,0,0.09938271604938267,41.04506172839504,0)" xlink:href="#L"/><use transform="matrix(0.09938271604938267,0,0,0.09938271604938267,48.89629629629627,0)" xlink:href="#F"/><use transform="matrix(0.09938271604938267,0,0,0.09938271604938267,68.7728395061728,0)" xlink:href="#y"/></g><g id="m"><use transform="matrix(0.09938271604938267,0,0,0.09938271604938267,0,0)" xlink:href="#G"/><use transform="matrix(0.09938271604938267,0,0,0.09938271604938267,9.938271604938267,0)" xlink:href="#C"/><use transform="matrix(0.09938271604938267,0,0,0.09938271604938267,29.814814814814802,0)" xlink:href="#x"/><use transform="matrix(0.09938271604938267,0,0,0.09938271604938267,49.69135802469134,0)" xlink:href="#F"/><use transform="matrix(0.09938271604938267,0,0,0.09938271604938267,69.56790123456787,0)" xlink:href="#D"/></g><g id="n"><use transform="matrix(0.09938271604938267,0,0,0.09938271604938267,0,0)" xlink:href="#H"/><use transform="matrix(0.09938271604938267,0,0,0.09938271604938267,23.85185185185184,0)" xlink:href="#I"/><use transform="matrix(0.09938271604938267,0,0,0.09938271604938267,43.72839506172838,0)" xlink:href="#z"/><use transform="matrix(0.09938271604938267,0,0,0.09938271604938267,55.55493827160492,0)" xlink:href="#I"/><use transform="matrix(0.09938271604938267,0,0,0.09938271604938267,75.43148148148146,0)" xlink:href="#B"/><use transform="matrix(0.09938271604938267,0,0,0.09938271604938267,105.14691358024687,0)" xlink:href="#y"/><use transform="matrix(0.09938271604938267,0,0,0.09938271604938267,125.0234567901234,0)" xlink:href="#D"/><use transform="matrix(0.09938271604938267,0,0,0.09938271604938267,134.96172839506167,0)" xlink:href="#y"/><use transform="matrix(0.09938271604938267,0,0,0.09938271604938267,154.8382716049382,0)" xlink:href="#z"/></g><path fill="#333" d="M127-220V0H93v-220H8v-28h204v28h-85" id="V"/><path fill="#333" d="M179-190L93 31C79 59 56 82 12 73V49c39 6 53-20 64-50L1-190h34L92-34l54-156h33" id="W"/><g id="o"><use transform="matrix(0.09938271604938267,0,0,0.09938271604938267,0,0)" xlink:href="#V"/><use transform="matrix(0.09938271604938267,0,0,0.09938271604938267,19.777160493827154,0)" xlink:href="#W"/><use transform="matrix(0.09938271604938267,0,0,0.09938271604938267,37.66604938271604,0)" xlink:href="#x"/><use transform="matrix(0.09938271604938267,0,0,0.09938271604938267,57.54259259259257,0)" xlink:href="#y"/></g><path fill="#333" d="M145-31C134-9 116 4 85 4 32 4 16-35 15-94c0-59 17-99 70-100 32-1 48 14 60 33 0-11-1-24 2-32h30l-1 268h-32zM93-21c41 0 51-33 51-76s-8-73-50-73c-40 0-46 35-46 75s5 74 45 74" id="X"/><g id="p"><use transform="matrix(0.09938271604938267,0,0,0.09938271604938267,0,0)" xlink:href="#E"/><use transform="matrix(0.09938271604938267,0,0,0.09938271604938267,25.740123456790112,0)" xlink:href="#y"/><use transform="matrix(0.09938271604938267,0,0,0.09938271604938267,45.616666666666646,0)" xlink:href="#X"/><use transform="matrix(0.09938271604938267,0,0,0.09938271604938267,65.49320987654318,0)" xlink:href="#F"/><use transform="matrix(0.09938271604938267,0,0,0.09938271604938267,85.3697530864197,0)" xlink:href="#A"/><use transform="matrix(0.09938271604938267,0,0,0.09938271604938267,93.22098765432094,0)" xlink:href="#z"/><use transform="matrix(0.09938271604938267,0,0,0.09938271604938267,105.04753086419747,0)" xlink:href="#y"/><use transform="matrix(0.09938271604938267,0,0,0.09938271604938267,124.924074074074,0)" xlink:href="#N"/></g><path fill="#333" d="M185-189c-5-48-123-54-124 2 14 75 158 14 163 119 3 78-121 87-175 55-17-10-28-26-33-46l33-7c5 56 141 63 141-1 0-78-155-14-162-118-5-82 145-84 179-34 5 7 8 16 11 25" id="Y"/><g id="q"><use transform="matrix(0.09938271604938267,0,0,0.09938271604938267,0,0)" xlink:href="#Y"/><use transform="matrix(0.09938271604938267,0,0,0.09938271604938267,23.85185185185184,0)" xlink:href="#y"/><use transform="matrix(0.09938271604938267,0,0,0.09938271604938267,43.72839506172838,0)" xlink:href="#D"/><use transform="matrix(0.09938271604938267,0,0,0.09938271604938267,53.66666666666664,0)" xlink:href="#N"/></g><g id="r"><use transform="matrix(0.09938271604938267,0,0,0.09938271604938267,0,0)" xlink:href="#H"/><use transform="matrix(0.09938271604938267,0,0,0.09938271604938267,23.85185185185184,0)" xlink:href="#z"/><use transform="matrix(0.09938271604938267,0,0,0.09938271604938267,35.67839506172838,0)" xlink:href="#U"/><use transform="matrix(0.09938271604938267,0,0,0.09938271604938267,55.55493827160492,0)" xlink:href="#P"/><use transform="matrix(0.09938271604938267,0,0,0.09938271604938267,73.4438271604938,0)" xlink:href="#A"/><use transform="matrix(0.09938271604938267,0,0,0.09938271604938267,81.29506172839503,0)" xlink:href="#R"/><use transform="matrix(0.09938271604938267,0,0,0.09938271604938267,101.17160493827156,0)" xlink:href="#y"/><use transform="matrix(0.09938271604938267,0,0,0.09938271604938267,121.0481481481481,0)" xlink:href="#N"/></g><g id="s"><use transform="matrix(0.09938271604938267,0,0,0.09938271604938267,0,0)" xlink:href="#J"/><use transform="matrix(0.09938271604938267,0,0,0.09938271604938267,27.827160493827147,0)" xlink:href="#F"/><use transform="matrix(0.09938271604938267,0,0,0.09938271604938267,47.70370370370368,0)" xlink:href="#D"/><use transform="matrix(0.09938271604938267,0,0,0.09938271604938267,57.64197530864195,0)" xlink:href="#x"/><use transform="matrix(0.09938271604938267,0,0,0.09938271604938267,77.51851851851848,0)" xlink:href="#F"/><use transform="matrix(0.09938271604938267,0,0,0.09938271604938267,97.395061728395,0)" xlink:href="#D"/></g><g id="t"><use transform="matrix(0.09938271604938267,0,0,0.09938271604938267,0,0)" xlink:href="#K"/><use transform="matrix(0.09938271604938267,0,0,0.09938271604938267,21.168518518518507,0)" xlink:href="#I"/><use transform="matrix(0.09938271604938267,0,0,0.09938271604938267,41.04506172839504,0)" xlink:href="#L"/><use transform="matrix(0.09938271604938267,0,0,0.09938271604938267,48.89629629629627,0)" xlink:href="#F"/><use transform="matrix(0.09938271604938267,0,0,0.09938271604938267,68.7728395061728,0)" xlink:href="#y"/></g><g id="u"><use transform="matrix(0.09938271604938267,0,0,0.09938271604938267,0,0)" xlink:href="#S"/><use transform="matrix(0.09938271604938267,0,0,0.09938271604938267,25.740123456790112,0)" xlink:href="#I"/><use transform="matrix(0.09938271604938267,0,0,0.09938271604938267,45.616666666666646,0)" xlink:href="#B"/><use transform="matrix(0.09938271604938267,0,0,0.09938271604938267,75.33209876543206,0)" xlink:href="#y"/></g></defs></g></svg>